<svg width="65" height="65" viewBox="0 0 65 65" fill="none" xmlns="http://www.w3.org/2000/svg">
<path d="M13.6912 32.5334C13.6913 33.0977 13.9155 33.639 14.3146 34.0381C14.7137 34.4372 15.255 34.6614 15.8193 34.6615L30.8075 34.6615L30.8075 49.6497C30.8172 50.2077 31.0457 50.7396 31.4437 51.1307C31.8418 51.5219 32.3776 51.7411 32.9357 51.7411C33.4937 51.7411 34.0295 51.5219 34.4276 51.1307C34.8256 50.7396 35.0541 50.2077 35.0638 49.6497L35.0638 34.6615L50.052 34.6615C50.61 34.6518 51.1418 34.4233 51.533 34.0253C51.9242 33.6272 52.1434 33.0914 52.1434 32.5334C52.1434 31.9753 51.9242 31.4395 51.533 31.0414C51.1418 30.6434 50.61 30.4149 50.052 30.4052L35.0638 30.4052L35.0638 15.417C35.0541 14.859 34.8256 14.3272 34.4276 13.936C34.0295 13.5448 33.4937 13.3256 32.9357 13.3256C32.3776 13.3256 31.8418 13.5448 31.4437 13.936C31.0457 14.3272 30.8172 14.859 30.8075 15.417V30.4052L15.8193 30.4052C15.255 30.4053 14.7137 30.6296 14.3146 31.0286C13.9155 31.4277 13.6913 31.969 13.6912 32.5334Z" fill="#2B2B34"/>
</svg>
