<svg width="18" height="22" viewBox="0 0 18 22" fill="none" xmlns="http://www.w3.org/2000/svg">
<path d="M1.41417 12.9833C1.41417 11.1762 1.40514 9.36905 1.41417 7.56191C1.41417 6.91134 1.81174 6.51377 2.4081 6.53184C2.96831 6.55895 3.32974 6.96555 3.33877 7.59805C3.34781 9.08894 3.33877 10.5798 3.33877 12.0707C3.33877 14.0405 3.33877 16.0103 3.33877 17.9891C3.33877 19.2631 4.08873 20.0221 5.34469 20.0221C7.85661 20.0221 10.3685 20.0221 12.8895 20.0221C14.1545 20.0221 14.9044 19.2631 14.9044 17.9981C14.9044 14.5555 14.9044 11.1039 14.9044 7.6613C14.9044 6.96555 15.2749 6.54991 15.8713 6.54991C16.3773 6.54991 16.7658 6.89327 16.82 7.39927C16.8381 7.54384 16.829 7.69744 16.829 7.85105C16.829 11.2214 16.829 14.5917 16.829 17.971C16.829 20.3835 15.2568 21.9648 12.8533 21.9648C10.3505 21.9648 7.85661 21.9648 5.35373 21.9648C3.00445 21.9648 1.42321 20.3745 1.41417 18.0252C1.41417 16.3265 1.41417 14.6549 1.41417 12.9833Z" fill="#EE5D5D"/>
<path d="M9.07711 5.56425C6.56519 5.56425 4.05327 5.56425 1.54135 5.56425C1.10764 5.56425 0.773318 5.41968 0.565498 5.04018C0.384784 4.70586 0.411891 4.37154 0.619712 4.05529C0.836568 3.73904 1.14378 3.63062 1.51424 3.63062C2.6166 3.63965 3.70991 3.62158 4.81227 3.63965C5.16466 3.64869 5.29116 3.5493 5.26405 3.18787C5.23695 2.72705 5.24598 2.25719 5.26405 1.78734C5.28212 1.1187 5.64355 0.748234 6.30315 0.739199C8.18258 0.730163 10.062 0.730163 11.9505 0.739199C12.6101 0.739199 12.9715 1.10966 12.9896 1.78734C12.9986 2.2843 13.0076 2.78126 12.9896 3.27822C12.9715 3.61255 13.1341 3.63965 13.3962 3.63965C14.5527 3.63062 15.7183 3.63062 16.8749 3.64869C17.4261 3.65772 17.8146 4.09144 17.8056 4.60647C17.7965 5.10343 17.408 5.51004 16.893 5.55522C16.7574 5.56425 16.6219 5.55522 16.4864 5.55522C14.0106 5.56425 11.5438 5.56425 9.07711 5.56425ZM9.12229 2.67283C8.58015 2.67283 8.03801 2.69091 7.5049 2.6638C7.16154 2.64573 7.17962 2.86258 7.21576 3.0704C7.2519 3.27822 7.02601 3.63965 7.48683 3.63965C8.58015 3.63965 9.67346 3.63965 10.7758 3.63965C11.2366 3.63965 11.0107 3.27822 11.0469 3.0704C11.083 2.86258 11.1011 2.65476 10.7577 2.6638C10.1975 2.69091 9.65539 2.67283 9.12229 2.67283Z" fill="#EE5D5D"/>
<path d="M8.14603 12.8386C8.14603 13.9048 8.15507 14.971 8.14603 16.0463C8.14603 16.7059 7.76653 17.1305 7.19729 17.1305C6.62804 17.1396 6.23047 16.7059 6.23047 16.0643C6.23047 13.8867 6.23047 11.7001 6.23047 9.5225C6.23047 9.07071 6.40215 8.73639 6.81779 8.54665C7.20632 8.37497 7.54968 8.45629 7.85689 8.73639C8.10085 8.95325 8.15507 9.24239 8.15507 9.55864C8.14603 10.6429 8.14603 11.7453 8.14603 12.8386Z" fill="#EE5D5D"/>
<path d="M12.0132 12.7931C12.0132 13.9045 12.0223 15.0159 12.0132 16.1363C12.0132 16.6423 11.697 17.0218 11.2452 17.1212C10.8295 17.2115 10.3958 16.9856 10.188 16.5971C10.0977 16.4254 10.0977 16.2537 10.0977 16.073C10.0977 13.8954 10.0977 11.7088 10.0977 9.53119C10.0977 8.88063 10.4952 8.45595 11.0645 8.46499C11.6247 8.47402 12.0132 8.90773 12.0132 9.54927C12.0132 10.6245 12.0132 11.7088 12.0132 12.7931Z" fill="#EE5D5D"/>
</svg>
