<svg width="19" height="19" viewBox="0 0 19 19" fill="none" xmlns="http://www.w3.org/2000/svg">
<g opacity="0.8">
<path d="M0.890625 8.25696C0.890625 6.51557 0.890625 4.77418 0.890625 3.03279C0.890625 1.63968 1.81937 0.710938 3.21248 0.710938C6.34698 0.710938 9.48148 0.710938 12.7321 0.710938C14.1252 0.710938 15.0539 1.63968 15.0539 3.03279C15.0539 5.12246 15.0539 7.21213 15.0539 9.3018C15.0539 10.6949 14.1252 11.6237 12.7321 11.6237C10.178 11.6237 7.74009 11.6237 5.18605 11.6237C4.95387 11.6237 4.83778 11.6237 4.72168 11.8558C3.79294 12.6685 2.8642 13.365 1.93546 14.1777C1.70327 14.4099 1.47109 14.526 1.2389 14.4099C0.890625 14.0616 0.890625 13.8294 0.890625 13.5972C0.890625 11.7397 0.890625 9.99835 0.890625 8.25696ZM2.05155 12.5524C2.16764 12.5524 2.28374 12.4363 2.28374 12.4363C2.8642 11.8558 3.56076 11.3915 4.14122 10.811C4.37341 10.5788 4.60559 10.4627 4.95387 10.4627C7.50791 10.4627 10.0619 10.4627 12.616 10.4627C13.5447 10.4627 13.893 9.99835 13.893 9.1857C13.893 7.21213 13.893 5.12246 13.893 3.14888C13.893 2.22014 13.5447 1.87186 12.616 1.87186C9.48148 1.87186 6.46307 1.87186 3.32857 1.87186C2.39983 1.87186 2.05155 2.22014 2.05155 3.14888C2.05155 6.16729 2.05155 9.1857 2.05155 12.2041C1.93546 12.3202 1.93546 12.4363 2.05155 12.5524Z" fill="white" stroke="white" stroke-width="0.20175"/>
<path d="M17.1433 16.384C17.1433 16.2679 17.1433 16.1519 17.1433 16.0358C17.1433 13.1334 17.1433 10.2311 17.1433 7.4449C17.1433 6.63225 16.795 6.28397 15.9823 6.16788C15.6341 6.16788 15.4019 5.9357 15.518 5.58742C15.518 5.23914 15.7501 5.12305 16.0984 5.12305C17.2593 5.12305 18.1881 6.05179 18.1881 7.32881C18.1881 8.95411 18.1881 10.4633 18.1881 12.0886C18.1881 13.9461 18.1881 15.6875 18.1881 17.545C18.1881 17.7772 18.1881 18.1254 17.8398 18.2415C17.6076 18.3576 17.3754 18.2415 17.1433 18.0093C16.4467 17.4289 15.6341 16.8484 14.9375 16.2679C14.8214 16.1519 14.5892 16.0358 14.4731 16.0358C12.1513 16.0358 9.82942 16.0358 7.62365 16.0358C6.34663 16.0358 4.95352 15.2231 5.18571 13.2495C5.18571 12.9013 5.41789 12.7852 5.76617 12.7852C6.11445 12.7852 6.23054 13.0174 6.23054 13.2495C6.23054 13.3656 6.23054 13.5978 6.23054 13.7139C6.23054 14.5266 6.69491 14.9909 7.50756 14.9909C9.82942 14.9909 12.1513 14.9909 14.357 14.9909C14.9375 14.9909 15.2858 15.107 15.7501 15.4553C16.2145 15.6875 16.6789 16.0358 17.1433 16.384Z" fill="white" stroke="white" stroke-width="0.20175"/>
<path d="M7.97168 5.00577C6.92685 5.00577 5.88202 5.00577 4.83718 5.00577C4.37281 5.00577 4.14062 4.88968 4.14062 4.5414C4.14062 4.19312 4.37281 3.96094 4.83718 3.96094C6.92685 3.96094 9.01652 3.96094 11.1062 3.96094C11.5706 3.96094 11.9188 4.30922 11.8027 4.65749C11.6866 5.00577 11.4545 5.00577 11.1062 5.00577C10.0614 5.00577 9.01652 5.00577 7.97168 5.00577Z" fill="white" stroke="white" stroke-width="0.20175"/>
<path d="M6.81029 6.16866C7.50685 6.16866 8.2034 6.16866 8.89996 6.16866C9.36433 6.16866 9.59652 6.40085 9.59652 6.74913C9.59652 7.09741 9.36433 7.32959 8.89996 7.32959C7.50685 7.32959 6.11374 7.32959 4.83672 7.32959C4.37235 7.2135 4.14062 7.07607 4.14062 6.72779C4.14062 6.37951 4.37235 6.12891 4.83672 6.12891C5.63016 6.12891 6.22983 6.16866 6.81029 6.16866Z" fill="white" stroke="white" stroke-width="0.20175"/>
</g>
</svg>
