<svg width="21" height="21" viewBox="0 0 21 21" fill="none" xmlns="http://www.w3.org/2000/svg">
<g opacity="0.6">
<path d="M0.356358 11.0717C0.356358 8.77731 0.356358 6.49069 0.356358 4.19634C0.356358 2.75948 1.22929 1.87109 2.65843 1.87109C5.3622 1.87109 8.06598 1.87109 10.7698 1.87109C11.2951 1.87109 11.6041 2.09512 11.6427 2.49682C11.689 2.87535 11.4727 3.19208 11.1019 3.26933C10.9397 3.30023 10.7698 3.30023 10.5998 3.30023C7.98873 3.30023 5.36993 3.30023 2.75886 3.30023C1.9709 3.30023 1.76232 3.50881 1.76232 4.31222C1.76232 8.81593 1.76232 13.3274 1.76232 17.8311C1.76232 18.619 1.98635 18.8353 2.77431 18.8353C6.81452 18.8353 10.8625 18.8353 14.9027 18.8353C15.6752 18.8353 15.8838 18.619 15.8838 17.8465C15.8838 15.6681 15.8838 13.4973 15.8838 11.3189C15.8838 11.1798 15.8838 11.033 15.9147 10.894C15.9996 10.5386 16.3164 10.3223 16.6563 10.3532C16.9884 10.3841 17.2743 10.6313 17.282 10.979C17.2974 13.4741 17.3592 15.9771 17.2511 18.4723C17.2047 19.4688 16.2391 20.2259 15.1808 20.2336C13.5431 20.2413 11.9131 20.2336 10.2753 20.2336C7.7647 20.2336 5.25405 20.2336 2.7434 20.2336C1.18294 20.2336 0.348633 19.3916 0.348633 17.8156C0.356358 15.5831 0.356358 13.3274 0.356358 11.0717Z" fill="black" stroke="black" stroke-width="0.35"/>
<path d="M20.1333 3.32823C20.1178 3.89988 19.8784 4.54107 19.3608 5.05865C16.2785 8.14867 13.1962 11.231 10.1139 14.3133C9.97481 14.4523 9.81259 14.545 9.62719 14.6068C8.32165 15.0394 7.01611 15.472 5.7183 15.9124C5.40157 16.0205 5.08484 16.0669 4.81447 15.8042C4.52864 15.5261 4.58271 15.2094 4.69859 14.8772C5.13119 13.5871 5.5638 12.297 5.9964 11.0069C6.06593 10.7906 6.17408 10.613 6.3363 10.4585C9.38771 7.39162 12.4391 4.33249 15.4982 1.28109C16.3248 0.454503 17.4527 0.245926 18.4878 0.686255C19.4921 1.11113 20.1333 2.09222 20.1333 3.32823ZM6.42128 14.182C7.28649 13.8884 8.05127 13.6257 8.82378 13.3785C9.05553 13.309 9.23321 13.1931 9.40316 13.0232C12.3232 10.0954 15.2433 7.17531 18.1634 4.25524C18.2638 4.15481 18.3642 4.05439 18.4492 3.94623C18.9282 3.30505 18.7196 2.40122 18.0089 2.03042C17.4759 1.75231 16.9042 1.86819 16.4021 2.37032C13.4434 5.32902 10.4924 8.28772 7.53369 11.2464C7.46417 11.316 7.36374 11.3855 7.33284 11.4782C7.03156 12.3511 6.74573 13.224 6.42128 14.182Z" fill="black" stroke="black" stroke-width="0.35"/>
</g>
</svg>
