<svg xmlns="http://www.w3.org/2000/svg" width="64" height="59" viewBox="0 0 64 59" fill="none">
  <rect x="0.166992" y="0.28125" width="63.8407" height="57.7883" rx="3" fill="white" fill-opacity="0.72"/>
  <rect x="0.666992" y="0.78125" width="62.8407" height="56.7883" rx="2.5" stroke="black" stroke-opacity="0.11"/>
  <path opacity="0.99" fill-rule="evenodd" clip-rule="evenodd" d="M36.0943 39.0882C35.4946 40.7876 33.8884 41.9242 32.0862 41.9242C30.284 41.9242 28.6778 40.7876 28.0781 39.0882H25.8248C24.6263 39.0883 23.5091 38.4821 22.8558 37.4773C22.2026 36.4724 22.102 35.2053 22.5887 34.11L23.5885 31.8567V27.7579C23.5881 24.1559 25.8579 20.9447 29.2537 19.7432V19.2603C29.2537 17.6959 30.5218 16.4277 32.0862 16.4277C33.6506 16.4277 34.9188 17.6959 34.9188 19.2603V19.7432C38.2187 20.9103 40.5839 24.0586 40.5839 27.7579V31.8567L41.5852 34.1085C42.0724 35.204 41.9722 36.4716 41.3189 37.4769C40.6656 38.4822 39.5479 39.0885 38.349 39.0882H36.0943ZM34.5406 39.0882H29.6318C30.1386 39.9644 31.074 40.5039 32.0862 40.5039C33.0984 40.5039 34.0338 39.9644 34.5406 39.0882ZM33.5025 19.3778V19.2603C33.5025 18.4781 32.8684 17.844 32.0862 17.844C31.304 17.844 30.6699 18.4781 30.6699 19.2603V19.3778C31.6076 19.2204 32.5649 19.2204 33.5025 19.3778ZM32.0862 20.6766C28.1753 20.6766 25.0048 23.847 25.0048 27.7579V32.0068L24.9439 32.2943L23.8817 34.685C23.5899 35.3419 23.65 36.1019 24.0416 36.7048C24.4332 37.3076 25.1031 37.6715 25.822 37.6719H38.349C39.0685 37.6722 39.7393 37.3083 40.1313 36.705C40.5233 36.1016 40.5833 35.3409 40.2907 34.6835L39.2285 32.2943L39.1676 32.0068V27.7579C39.1676 23.847 35.9971 20.6766 32.0862 20.6766Z" fill="#2B292C" stroke="#2B292C" stroke-width="0.500782"/>
  <circle cx="38.0989" cy="23.1907" r="4.59699" fill="#EE5F5F"/>
</svg>