<svg xmlns="http://www.w3.org/2000/svg" width="19" height="20" viewBox="0 0 19 20" fill="none">
  <path d="M17.9188 10.5518C17.9188 15.0511 14.5865 18.7289 10.0028 19.1435C5.72617 19.5274 1.75666 16.6481 0.896727 12.3024C0.28249 9.18516 1.17313 6.45948 3.37671 4.17145C3.66079 3.87201 4.03701 3.85665 4.29039 4.1177C4.55144 4.37876 4.53608 4.72426 4.23664 5.03138C2.6473 6.65143 1.89486 8.59396 1.94861 10.859C2.04074 14.3985 4.86624 17.4927 8.37507 17.8843C12.3753 18.3296 15.8457 15.8112 16.5598 11.8571C17.0128 9.36175 16.2987 7.1505 14.6173 5.26172C14.5635 5.20798 14.5098 5.15423 14.456 5.09281C14.2026 4.79336 14.2026 4.44018 14.456 4.20216C14.7094 3.97182 15.0779 3.98718 15.3467 4.25591C16.1912 5.11584 16.8362 6.1063 17.2815 7.22728C17.7115 8.28684 17.9188 9.40014 17.9188 10.5518Z" fill="#25262E" stroke="#25262E" stroke-width="1.37134"/>
  <path d="M8.70508 6.5906C8.70508 5.10875 8.70508 3.6269 8.70508 2.14506C8.70508 1.63831 8.9431 1.34655 9.33467 1.36191C9.71857 1.36958 9.93355 1.65367 9.93355 2.13738C9.93355 5.10107 9.93355 8.06477 9.93355 11.0361C9.93355 11.5199 9.70321 11.8039 9.31932 11.8039C8.93542 11.8039 8.70508 11.5275 8.70508 11.0438C8.70508 9.56197 8.70508 8.08012 8.70508 6.5906Z" fill="#25262E" stroke="#25262E" stroke-width="1.37134"/>
</svg>