<svg width="18" height="19" viewBox="0 0 18 19" fill="none" xmlns="http://www.w3.org/2000/svg">
<path d="M2.92889 9.17572C2.88189 9.4577 2.87406 9.74751 2.85056 10.0295C2.81923 10.3663 2.85839 10.6953 2.3336 10.7423C1.98897 10.7736 1.91847 11.1417 1.91847 11.4864C1.9263 13.4289 1.9263 15.3714 1.91064 17.3139C1.91064 17.4784 2.04379 17.729 1.80098 17.8152C1.566 17.8935 1.1352 17.588 1.08037 17.3217C1.04904 17.1807 1.05687 17.0397 1.05687 16.8909C1.05687 15.6534 1.05687 14.4158 1.05687 13.1782H1.06471C1.06471 11.878 1.07254 10.5699 1.05687 9.26972C1.04904 8.95641 1.15087 8.86242 1.45634 8.87808C1.85581 8.90158 2.26311 8.89375 2.67041 8.87808C2.87406 8.88591 2.96805 8.94074 2.92889 9.17572ZM14.1531 2.83124C14.1845 2.54927 14.208 2.26729 14.2393 2.01664C14.6309 2.37695 15.0069 2.72158 15.422 3.09755C15.0147 3.16022 14.6623 3.05839 14.3098 3.04273C14.1531 3.03489 14.1453 2.94873 14.1531 2.83124ZM10.1585 8.96424C9.89998 9.44987 9.61801 9.91983 9.36736 10.3976C9.26554 10.5934 9.13238 10.6718 8.90523 10.6718C7.19771 10.6639 5.48235 10.6561 3.77482 10.6718C3.46151 10.6718 3.41452 10.5778 3.44585 10.288C3.71216 7.46036 3.9628 4.62493 4.21345 1.78949C4.22128 1.672 4.24478 1.55451 4.25261 1.43702C4.26045 1.14721 4.40927 1.06105 4.69124 1.08455C6.80607 1.28037 8.92873 1.46835 11.0436 1.65634C11.772 1.719 12.5004 1.81299 13.2289 1.84432C13.5814 1.85999 13.644 1.98531 13.5892 2.29862C13.55 2.51793 13.5344 2.73725 13.5265 2.95657C13.5109 3.3952 13.7067 3.61451 14.1375 3.65368C14.4586 3.68501 14.7876 3.72417 15.1087 3.732C15.3124 3.73983 15.375 3.81816 15.3515 4.02181C15.2262 5.40037 15.1009 6.77892 14.9912 8.15747C14.9677 8.40812 14.8581 8.44728 14.6388 8.43945C14.0121 8.42378 13.3855 8.43162 12.7589 8.43162C12.1871 8.43162 11.6075 8.44728 11.0357 8.42378C10.6128 8.42378 10.3464 8.60394 10.1585 8.96424ZM16.9729 17.8778C16.9729 14.5724 16.9729 9.78667 16.9729 9.49686C16.9729 8.69793 16.7379 8.43945 15.9233 8.44728C15.6257 8.44728 15.5944 8.34546 15.6179 8.08698C15.7588 6.64576 15.8607 5.20455 16.0173 3.76333C16.0878 3.15238 16.0173 2.63543 15.4925 2.23596C15.2732 2.07147 15.0931 1.85999 14.9207 1.64851C14.7171 1.41352 14.4743 1.3352 14.1688 1.30387C12.2576 1.13938 10.3464 0.967061 8.43527 0.794742C7.18987 0.685084 5.94447 0.559761 4.69124 0.457936C4.06463 0.41094 3.71216 0.708583 3.63383 1.3352C3.61033 1.49185 3.59467 1.64851 3.579 1.80516C3.39102 3.87299 3.20303 5.94082 3.03071 8.00082C3.01505 8.20447 2.94455 8.27496 2.7409 8.26713C2.24744 8.2593 1.74615 8.2593 1.25269 8.26713C0.649575 8.27496 0.430259 8.50211 0.422427 9.0974C0.422427 10.429 0.422427 11.7605 0.422427 13.0921C0.422427 14.4236 0.414594 15.7552 0.422427 17.0867C0.430259 17.8074 0.767065 18.2225 1.46417 18.4026C1.83231 18.4966 2.20828 18.5123 2.59208 18.5123C4.3701 18.5123 12.1558 18.5201 16.3385 18.5123C16.5578 18.5123 16.7693 18.5123 16.9729 18.5123V17.8778ZM6.53976 17.8778C5.34136 17.8778 4.14296 17.87 2.93672 17.8857C2.64691 17.8857 2.52942 17.8308 2.53725 17.5019C2.55292 15.5594 2.55292 13.6169 2.53725 11.6665C2.53725 11.3375 2.64691 11.2827 2.94455 11.2827C5.00455 11.2906 7.06455 11.2827 9.13238 11.2906C9.46135 11.2906 9.65717 11.1966 9.81382 10.8911C10.0801 10.3585 10.4013 9.84933 10.6833 9.31671C10.7772 9.13656 10.8947 9.05823 11.1062 9.05823C12.7354 9.06607 14.3646 9.06607 16.0017 9.05823C16.2366 9.05823 16.362 9.11306 16.362 9.38721C16.362 9.70051 16.3541 14.5411 16.3541 17.87C12.9939 17.8778 7.20554 17.8778 6.53976 17.8778Z" fill="#2B292C" stroke="#2B292C" stroke-width="0.35"/>
<path d="M6.14848 5.94771C8.2633 6.1357 10.386 6.32368 12.5008 6.51167C12.54 6.51167 12.5791 6.52733 12.6183 6.52733C12.8219 6.55083 12.9864 6.62916 12.9708 6.86414C12.9551 7.11479 12.7671 7.16961 12.5478 7.15395C11.1066 7.02863 9.66536 6.89547 8.22414 6.77015C7.5192 6.70749 6.82209 6.63699 6.11714 6.58216C5.88216 6.5665 5.63935 6.53517 5.65502 6.23752C5.67068 5.92422 5.9135 5.91638 6.14848 5.94771Z" fill="#2B292C" stroke="#2B292C" stroke-width="0.35"/>
<path d="M6.24201 4.15497C8.41166 4.35078 10.5813 4.55443 12.751 4.75025C12.9703 4.77375 13.1504 4.84424 13.1269 5.09489C13.0956 5.36903 12.8841 5.39253 12.657 5.37687C10.8241 5.20455 8.99128 5.04006 7.16626 4.87557C6.84512 4.84424 6.51615 4.81291 6.19501 4.78941C5.96786 4.77375 5.79554 4.69542 5.81904 4.44478C5.83471 4.19413 6.02269 4.13147 6.24201 4.15497Z" fill="#2B292C" stroke="#2B292C" stroke-width="0.35"/>
</svg>
