<svg xmlns="http://www.w3.org/2000/svg" width="59" height="59" viewBox="0 0 59 59" fill="none">
  <path d="M0.652344 29.2708C0.652344 13.1805 13.6961 0.136719 29.7864 0.136719C45.8768 0.136719 58.9206 13.1805 58.9206 29.2708C58.9206 45.3611 45.8768 58.4049 29.7864 58.4049C13.6961 58.4049 0.652344 45.3611 0.652344 29.2708Z" fill="white" fill-opacity="0.72"/>
  <path d="M1.15234 29.2708C1.15234 13.4566 13.9723 0.636719 29.7864 0.636719C45.6006 0.636719 58.4206 13.4566 58.4206 29.2708C58.4206 45.085 45.6006 57.9049 29.7864 57.9049C13.9723 57.9049 1.15234 45.085 1.15234 29.2708Z" stroke="black" stroke-opacity="0.11"/>
  <path d="M29.777 40.9267C23.339 40.9267 18.1213 35.6907 18.1304 29.2528C18.1395 22.8057 23.3755 17.5971 29.8134 17.6153C36.2423 17.6335 41.4418 22.8421 41.4418 29.271C41.4418 35.7089 36.224 40.9358 29.777 40.9267ZM29.777 39.1055C35.2042 39.1055 39.6206 34.6982 39.6115 29.2619C39.6206 23.8529 35.2224 19.4547 29.8134 19.4365C24.3862 19.4274 19.9607 23.8256 19.9516 29.2528C19.9425 34.6891 24.3498 39.1055 29.777 39.1055Z" fill="#25262E"/>
  <path d="M28.8754 30.9565C28.8754 30.6105 28.8663 30.2553 28.8754 29.9093C28.8936 29.3447 29.185 29.0078 29.7496 28.9258C29.9135 28.8985 30.0865 28.8985 30.2413 28.8621C31.1246 28.6253 31.6983 27.7876 31.589 26.9043C31.4797 25.9937 30.6875 25.2925 29.786 25.2925C28.9027 25.2925 28.1287 25.9573 27.983 26.8588C27.9648 26.9498 27.9739 27.0409 27.9648 27.132C27.9011 27.6965 27.5368 28.0335 27.0087 28.0152C26.4987 27.997 26.1527 27.6055 26.1436 27.0409C26.1345 25.5293 27.2363 24.0814 28.7115 23.6261C30.2686 23.1526 31.9259 23.7445 32.8183 25.1013C34.1023 27.0409 33.2645 29.6543 31.0882 30.4921C30.7786 30.6105 30.6693 30.7471 30.6875 31.0749C30.7148 31.4209 30.7057 31.776 30.6875 32.1221C30.6602 32.6502 30.296 33.0145 29.786 33.0145C29.2852 33.0145 28.9027 32.6684 28.8754 32.1403C28.8663 31.7487 28.8754 31.348 28.8754 30.9565Z" fill="#25262E"/>
  <path d="M28.6574 34.8336C28.6665 34.2053 29.1582 33.7227 29.7956 33.7227C30.4421 33.7227 30.9339 34.2417 30.9156 34.8882C30.8974 35.5074 30.3693 36.0083 29.7592 35.9901C29.14 35.9718 28.6482 35.4528 28.6574 34.8336Z" fill="#25262E"/>
</svg>