<svg width="24" height="20" viewBox="0 0 24 20" fill="none" xmlns="http://www.w3.org/2000/svg">
<g opacity="0.8">
<path d="M12.3289 18.829C11.1673 18.829 10.0129 18.829 8.8513 18.829C8.23466 18.829 8.07692 18.6713 8.07692 18.0761C8.07692 16.4126 8.06975 14.7563 8.07692 13.0928C8.08409 11.4006 9.19548 10.2892 10.8877 10.2749C11.87 10.2677 12.8451 10.2677 13.8275 10.2749C15.4981 10.2892 16.6167 11.3935 16.631 13.0641C16.6454 14.7491 16.6382 16.4342 16.631 18.1192C16.631 18.6569 16.4589 18.829 15.9212 18.829C14.7166 18.8362 13.5263 18.829 12.3289 18.829Z" stroke="#F5F9FC" stroke-width="1.3" stroke-miterlimit="10"/>
<path d="M9.17426 4.75719C9.14558 3.02199 10.5581 1.59511 12.3148 1.55926C14.0429 1.52341 15.4984 2.94312 15.5271 4.68549C15.5558 6.45654 14.1648 7.89777 12.4009 7.92645C10.6226 7.95513 9.19577 6.54976 9.17426 4.75719Z" stroke="#F5F9FC" stroke-width="1.3" stroke-miterlimit="10"/>
<path d="M19.3138 15.788C19.3138 14.8344 19.3138 14.0958 19.3138 13.3573C19.3138 12.8697 19.3209 12.375 19.1704 11.9017C19.1273 11.7727 19.1273 11.6651 19.3138 11.6723C19.9232 11.6938 20.5327 11.6006 21.135 11.744C22.3324 12.038 23.1499 13.0562 23.1642 14.2894C23.1785 15.2574 23.1785 16.2254 23.1642 17.1934C23.157 18.0968 22.5834 18.7493 21.68 18.8139C20.9414 18.8641 20.2029 18.8354 19.4572 18.8426C19.3424 18.8426 19.2564 18.8426 19.2707 18.6705C19.364 17.6308 19.2851 16.6054 19.3138 15.788Z" stroke="#F5F9FC" stroke-width="1.3" stroke-miterlimit="10"/>
<path d="M21.7885 7.27545C21.7957 8.48005 20.842 9.43369 19.6303 9.43369C18.4472 9.43369 17.4935 8.48005 17.4864 7.29696C17.4792 6.09953 18.44 5.13154 19.6446 5.13871C20.8277 5.13871 21.7813 6.09236 21.7885 7.27545Z" stroke="#F5F9FC" stroke-width="1.3" stroke-miterlimit="10"/>
<path d="M5.43784 15.788C5.43784 14.8344 5.43784 14.0958 5.43784 13.3573C5.43784 12.8697 5.43067 12.375 5.58125 11.9017C5.62427 11.7727 5.62427 11.6651 5.43784 11.6723C4.82837 11.6938 4.2189 11.6006 3.6166 11.744C2.42634 12.0308 1.60176 13.0562 1.58742 14.2823C1.57308 15.2503 1.57308 16.2182 1.58742 17.1862C1.59459 18.0897 2.16821 18.7422 3.07166 18.8067C3.81019 18.8569 4.54873 18.8282 5.29444 18.8354C5.40916 18.8354 5.4952 18.8354 5.48086 18.6633C5.38765 17.6308 5.46652 16.6054 5.43784 15.788Z" stroke="#F5F9FC" stroke-width="1.3" stroke-miterlimit="10"/>
<path d="M2.73393 7.1817C2.72676 8.3863 3.6804 9.33994 4.89217 9.33994C6.07527 9.33994 7.02891 8.3863 7.03608 7.20321C7.04325 6.00578 6.08244 5.03779 4.87783 5.04496C3.69474 5.04496 2.7411 5.99861 2.73393 7.1817Z" stroke="#F5F9FC" stroke-width="1.3" stroke-miterlimit="10"/>
</g>
</svg>
