<svg width="106" height="28" viewBox="0 0 106 28" fill="none" xmlns="http://www.w3.org/2000/svg">
<path d="M12.0619 9.27344L11.374 12.1525L8.95355 23.1591H7.93442L5.05537 9.27344H0.0361328L4.36745 27.2612H12.5715L16.8773 9.27344H12.0619Z" fill="white"/>
<path d="M28.4189 27.2626V9.27492H33.2089V11.1858C35.2217 9.98832 37.1325 9.19849 38.967 8.8418V13.7082C37.0306 14.1158 35.3491 14.5235 33.9732 14.9566L33.2598 15.2114V27.2626H28.4189Z" fill="white"/>
<path d="M46.6346 22.7C47.1951 23.1841 48.0104 23.4388 49.055 23.4388C51.2971 23.4388 53.2844 23.3624 55.0169 23.235L56.0361 23.1331L56.1125 26.7001C53.3609 27.3625 50.864 27.7192 48.6219 27.7192C45.9212 27.7192 43.9339 27.0058 42.7109 25.5535C41.4879 24.1013 40.8765 21.7828 40.8765 18.547C40.8765 12.101 43.5262 8.86523 48.8257 8.86523C54.0488 8.86523 56.673 11.5659 56.673 16.9928L56.3163 20.3305H45.7428C45.7938 21.4261 46.074 22.2159 46.6346 22.7ZM51.9595 16.6361C51.9595 15.1839 51.7302 14.1902 51.2716 13.6297C50.813 13.0692 50.0232 12.7889 48.8767 12.7889C47.7301 12.7889 46.9403 13.0946 46.4562 13.6806C45.9976 14.2666 45.7428 15.2603 45.7174 16.6616H51.9595V16.6361Z" fill="white"/>
<path d="M70.1281 13.3751H65.6948V20.7638C65.6948 21.4772 65.7203 21.9867 65.7458 22.2925C65.7713 22.5982 65.9242 22.853 66.1535 23.0568C66.3828 23.2607 66.7395 23.3881 67.2236 23.3881L69.9497 23.3116L70.1536 27.1588C68.5484 27.5155 67.3255 27.6939 66.4847 27.6939C64.319 27.6939 62.8413 27.2098 62.0514 26.2416C61.2616 25.2734 60.854 23.4645 60.854 20.8657V13.3751H58.7393V9.27305H60.854V4.2793H65.6694V9.27305H70.1026V13.3751H70.1281Z" fill="white"/>
<path d="M87.0429 14.8783V22.3689C87.0938 22.9549 87.1957 23.3371 87.3231 23.5664C87.476 23.7957 87.7563 23.9486 88.2149 24.0505L88.062 27.6939C86.839 27.6939 85.8709 27.6175 85.132 27.4391C84.3931 27.2608 83.6543 26.9296 82.9154 26.42C81.1829 27.2608 79.4249 27.6684 77.6159 27.6684C73.8961 27.6684 72.0361 25.7066 72.0361 21.7574C72.0361 19.8466 72.5457 18.4707 73.5903 17.6809C74.6094 16.8656 76.2146 16.407 78.3293 16.2541L82.1765 15.9739V14.8528C82.1765 14.114 81.9982 13.6044 81.6669 13.3241C81.3357 13.0439 80.8007 12.9165 80.0363 12.9165L73.2591 13.1967L73.1062 9.85907C75.6795 9.17115 78.1255 8.81445 80.4185 8.81445C82.737 8.81445 84.3931 9.29854 85.4123 10.2667C86.5333 11.2349 87.0429 12.7636 87.0429 14.8783ZM78.9408 19.6173C77.5904 19.7447 76.928 20.4581 76.928 21.7829C76.928 23.1078 77.514 23.7702 78.686 23.7702C79.6032 23.7702 80.5969 23.6174 81.6669 23.3371L82.202 23.1842V19.337L78.9408 19.6173Z" fill="white"/>
<path d="M91.6538 6.95434V2.0625H96.4692V6.95434H91.6538ZM91.6538 27.2606V9.27287H96.4692V27.2606H91.6538Z" fill="white"/>
<path d="M101.159 27.2606V2.0625H105.975V27.2606H101.159Z" fill="white"/>
<path d="M32.2183 0.0761719H15.0459V4.89158H32.2183C32.7279 4.89158 33.161 4.48392 33.161 3.94888V0.993386C33.161 0.483819 32.7279 0.0761719 32.2183 0.0761719Z" fill="white" fill-opacity="0.5"/>
<path d="M19.0674 0.0761719L16.8762 9.27385L12.5704 27.2616H7.72949L8.72315 23.1595L11.3474 12.1529L12.0608 9.27385L14.2519 0.0761719H19.0674Z" fill="white"/>
<path d="M24.2632 15.5918H19.4478V20.4836H24.2632V15.5918Z" fill="white"/>
</svg>
